<svg id="Capa_1" data-name="Capa 1" xmlns="http://www.w3.org/2000/svg" viewBox="0 0 599.14 78.43"><defs><style>.cls-1{font-size:78.99px;font-family:CalmiusSans-ExtraBoldLow, Calmius Sans;font-weight:800;}.cls-1,.cls-6{fill:#003050;}.cls-2{letter-spacing:-0.02em;}.cls-3{letter-spacing:-0.07em;}.cls-4{letter-spacing:-0.02em;}.cls-5{letter-spacing:-0.05em;}.cls-7{fill:#fff;}</style></defs><title>AC-Personal</title><text class="cls-1" transform="translate(68.69 65.08)"><tspan xml:space="preserve">NA    </tspan><tspan class="cls-2" x="225.26" y="0">O</tspan><tspan class="cls-3" x="287.74" y="0">R</tspan><tspan class="cls-4" x="338.85" y="0">T</tspan><tspan class="cls-5" x="384.74" y="0">E</tspan><tspan x="428.65" y="0">SE</tspan></text><circle class="cls-6" cx="20.99" cy="67.74" r="5.36"/><path class="cls-6" d="M34.43,18.21l-1.92-4.62,8.28-6h1.77L49,23.09,66.64,65.35H54.06l-3.22-7.78H32.59l-2.77,7.78s-2.22-8-10.06-6.35Z"/><polygon class="cls-7" points="41.02 34.08 46.77 47.85 36.11 47.85 41.02 34.08"/><circle class="cls-6" cx="284.58" cy="23.83" r="5.47"/><path class="cls-6" d="M276.29,22.63s-13.22-14.09-27.36,3.12c0,0-10.83,20.33,10.72,29,0,0,13.32,3.9,20.21-9.21L290.05,50s-7.85,18.5-33.19,14.21c0,0-29-7.05-21.41-36.85,0,0,9-24.56,36.36-18.87,0,0,9.84,2.2,12.85,6.83C284.66,15.28,276.24,14.47,276.29,22.63Z"/></svg>