<svg id="Capa_1" data-name="Capa 1" xmlns="http://www.w3.org/2000/svg" xmlns:xlink="http://www.w3.org/1999/xlink" viewBox="0 0 102.86 85.29"><defs><style>.cls-1{fill:url(#Degradado_sin_nombre_17);}.cls-2{fill:url(#Degradado_sin_nombre_18);}.cls-3{fill:url(#Degradado_sin_nombre_19);}.cls-4{fill:url(#Degradado_sin_nombre_20);}</style><linearGradient id="Degradado_sin_nombre_17" x1="2.96" y1="47.14" x2="18.25" y2="95.87" gradientUnits="userSpaceOnUse"><stop offset="0.4" stop-color="#c1d8e9"/><stop offset="0.4" stop-color="#bfd6e8"/><stop offset="0.44" stop-color="#8ea5c9"/><stop offset="0.47" stop-color="#6a82b3"/><stop offset="0.5" stop-color="#546ca6"/><stop offset="0.51" stop-color="#4c64a1"/><stop offset="0.54" stop-color="#6088b7"/><stop offset="0.57" stop-color="#75accd"/><stop offset="0.59" stop-color="#7dbad6"/><stop offset="0.6" stop-color="#6da0bf"/><stop offset="0.62" stop-color="#56799c"/><stop offset="0.64" stop-color="#445a81"/><stop offset="0.66" stop-color="#37446e"/><stop offset="0.68" stop-color="#2f3662"/><stop offset="0.69" stop-color="#2c325e"/></linearGradient><linearGradient id="Degradado_sin_nombre_18" x1="82.76" y1="-0.62" x2="98.05" y2="48.11" gradientUnits="userSpaceOnUse"><stop offset="0.07" stop-color="#c1d8e9"/><stop offset="0.36" stop-color="#4c64a1"/><stop offset="0.4" stop-color="#4e68a4"/><stop offset="0.44" stop-color="#5575ab"/><stop offset="0.49" stop-color="#6189b8"/><stop offset="0.53" stop-color="#72a6ca"/><stop offset="0.56" stop-color="#7dbad6"/><stop offset="0.58" stop-color="#6fa2c1"/><stop offset="0.66" stop-color="#3f527a"/><stop offset="0.7" stop-color="#2c325e"/></linearGradient><linearGradient id="Degradado_sin_nombre_19" x1="40.43" y1="9.9" x2="74.48" y2="114.76" gradientUnits="userSpaceOnUse"><stop offset="0.36" stop-color="#c1d8e9"/><stop offset="0.36" stop-color="#bfd6e8"/><stop offset="0.38" stop-color="#8ea5c9"/><stop offset="0.41" stop-color="#6a82b3"/><stop offset="0.43" stop-color="#546ca6"/><stop offset="0.44" stop-color="#4c64a1"/><stop offset="0.46" stop-color="#5878ae"/><stop offset="0.51" stop-color="#76adce"/><stop offset="0.52" stop-color="#7dbad6"/><stop offset="0.53" stop-color="#77b0cd"/><stop offset="0.55" stop-color="#6896b7"/><stop offset="0.57" stop-color="#4f6c91"/><stop offset="0.6" stop-color="#2c325e"/></linearGradient><linearGradient id="Degradado_sin_nombre_20" x1="33.41" y1="-29.5" x2="52.16" y2="47.48" gradientUnits="userSpaceOnUse"><stop offset="0.46" stop-color="#c1d8e9"/><stop offset="0.59" stop-color="#4c64a1"/><stop offset="0.8" stop-color="#7dbad6"/><stop offset="0.82" stop-color="#75acca"/><stop offset="0.94" stop-color="#41557d"/><stop offset="1" stop-color="#2c325e"/></linearGradient></defs><title>AC-Personal</title><circle class="cls-1" cx="11.27" cy="73.64" r="5.84"/><circle class="cls-2" cx="91.07" cy="25.88" r="5.84"/><path class="cls-3" d="M82.88,25.5S61.82,9.05,51,35c0,0-5.59,19.6,17.11,25.92,0,0,13.15,2,19.08-10.46l10.52,4.94S85.1,77.44,59,69.54l1.72,3.56H46.86L39.79,57.74l-14.06.17L20.21,73.1S18.11,62.88,9.6,65.35L25.31,21.22,22.86,16.4,33.73,9.05l8,18.69s3.49-12.48,19.41-16.43C80.63,6.49,91.89,18,91.89,18S83.25,16.74,82.88,25.5Z"/><path class="cls-4" d="M9.6,65.35S27.09,45,50.38,41.07c0,0-2-9.61,10-18.38,0,0,8.36-6.34,22.52,2.81a8.21,8.21,0,0,1,9-7.52S77.05,5.42,58.1,12.23A24.14,24.14,0,0,0,41.76,27.74l-8-18.69L22.86,16.4l2.45,4.82Z"/></svg>